/* XPM */
static char *whippet64[] = {
/* columns rows colors chars-per-pixel */
"64 64 164 2 ",
"   c #0E1526",
".  c #0F182A",
"X  c #101727",
"o  c #101729",
"O  c #11192C",
"+  c #151E31",
"@  c #162134",
"#  c #192336",
"$  c #15253A",
"%  c #1C2639",
"&  c #16293E",
"*  c #1D293B",
"=  c #242C3D",
"-  c #162C43",
";  c #1A2D42",
":  c #1D3146",
">  c #17334C",
",  c #1B344C",
"<  c #173651",
"1  c #193750",
"2  c #1C3A54",
"3  c #1D3E58",
"4  c #263042",
"5  c #2B3344",
"6  c #20364D",
"7  c #2E3748",
"8  c #2E3848",
"9  c #313A4B",
"0  c #203C54",
"q  c #203F58",
"w  c #1E415B",
"e  c #21435D",
"r  c #374051",
"t  c #1E4B68",
"y  c #244761",
"u  c #234965",
"i  c #244D6A",
"p  c #294E69",
"a  c #24506D",
"s  c #28526F",
"d  c #245675",
"f  c #2B5774",
"g  c #285977",
"h  c #295C7B",
"j  c #305773",
"k  c #305874",
"l  c #32617F",
"z  c #38637F",
"x  c #424857",
"c  c #454B5A",
"v  c #4E5664",
"b  c #505967",
"n  c #6A6F7B",
"m  c #2D6585",
"M  c #2B6789",
"N  c #2D6B8E",
"B  c #336685",
"V  c #366887",
"C  c #306788",
"Z  c #356B8B",
"A  c #3C6D8B",
"S  c #2F6E90",
"D  c #346F91",
"F  c #297096",
"G  c #2D7398",
"H  c #337599",
"J  c #397598",
"K  c #3C799B",
"L  c #2D7CA5",
"P  c #377DA2",
"I  c #407798",
"U  c #427B9B",
"Y  c #727984",
"T  c #3585AD",
"R  c #3C83A9",
"E  c #3B88AF",
"W  c #2F8DBB",
"Q  c #3D8BB3",
"!  c #378EB8",
"~  c #7F838D",
"^  c #4987A9",
"/  c #448AAF",
"(  c #428CB2",
")  c #4492BA",
"_  c #4995BC",
"`  c #5196BA",
"'  c #3696C4",
"]  c #3D9AC7",
"[  c #3BA6D8",
"{  c #37ACE1",
"}  c #38ADE1",
"|  c #3FB1E5",
" . c #3CBCF6",
".. c #3EBFF8",
"X. c #4599C2",
"o. c #4B9AC3",
"O. c #479EC9",
"+. c #539DC3",
"@. c #43A1CE",
"#. c #55A6CF",
"$. c #47A7D6",
"%. c #49A5D2",
"&. c #4CA9D6",
"*. c #49ACDB",
"=. c #50A7D2",
"-. c #54AAD4",
";. c #5EAED6",
":. c #55AED9",
">. c #4FB0DF",
",. c #54B2DE",
"<. c #62B0D8",
"1. c #43AFE1",
"2. c #44B1E3",
"3. c #4DB3E3",
"4. c #4CB9EC",
"5. c #52B5E3",
"6. c #5BB6E1",
"7. c #56B8E6",
"8. c #50B7E8",
"9. c #52BBEC",
"0. c #5BBDEB",
"q. c #43BCF3",
"w. c #4BBEF2",
"e. c #65B9E1",
"r. c #65BAE3",
"t. c #3EC0FA",
"y. c #5FC0EE",
"u. c #4FC1F4",
"i. c #44C1FA",
"p. c #4CC4FA",
"a. c #4FC8FE",
"s. c #55C3F5",
"d. c #5CC4F3",
"f. c #53C6FA",
"g. c #59C7FA",
"h. c #55C8FD",
"j. c #5CC9FB",
"k. c #61C0ED",
"l. c #68C8F5",
"z. c #61CAFA",
"x. c #65CBFB",
"c. c #62CCFC",
"v. c #65CDFD",
"b. c #6ACDFB",
"n. c #6CCEFB",
"m. c #6ECEFB",
"M. c #70CFFB",
"N. c #70CFFC",
"B. c #6DD0FE",
"V. c #71D1FD",
"C. c #72D2FE",
"Z. c #868C95",
"A. c #8E929B",
"S. c #9499A2",
"D. c #A0A3AB",
"F. c #A1A4AB",
"G. c #A6AAB1",
"H. c #C7C9CE",
"J. c #C8C9CE",
"K. c #CBCDD1",
"L. c #D0D2D5",
"P. c #D3D5D8",
"I. c #F9F9FA",
"U. c white",
/* pixels */
"U.U.U.U.U.U.I.J.~ c = O                                                   .                             O = x ~ H.I.U.U.U.U.U.U.",
"U.U.U.U.U.L.n =             .                       . .                 . . . .                     . .         = n L.U.U.U.U.U.",
"U.U.U.I.F.5     . . . . O O O O O O O O . . . . O O O O O O O O         O O O O O O O O . . . . O O O O O O O O     5 D.I.U.U.U.",
"U.U.I.A.@   O O O O O O O O O O O O O O O O O O O O O O + + @ @ @ @ + + O O O O O O O O O O O O O O O O O O O O O O   @ A.I.U.U.",
"U.U.D.@   O O O O O O O O O O O O O O O O o O O @ - - > < < 1 < < < < < > - & @ + O   O O O O . O O O O O O O O O O O   @ D.U.U.",
"U.L.5   O O O O O O O O O O O O O O O O O @ - > < < > - - $ $ $ $ $ $ - - > < < > - @ O O O O O O O O O O O O O O O O O   5 L.U.",
"I.n   O O O O O O O O O O O O O O O O $ > 1 < - $ + O O O O O O O O O O O O + $ - < 1 > $ O O O O O O O O O O O O O O O O   n I.",
"J.=   O O O O O O O O O O O O O O $ > 1 > & + O O O O O O O O O O O O O O O O O O + & > 2 > $ O O O O O O O O O O O O O O o = J.",
"~ O O O O O O O O O O O O O O + - 1 > & O O O O O O O O O O O O O O O O O O O O O O O O & , 1 - + O O O O O O O O O O O O O O Z.",
"c . O O O O O O O O O O O O $ > 1 - + O O O O O O O .                     . O O O O O O O + - 1 > @ O O O O O O O O O O O O O c ",
"= O O O O O O O O O O O O & 1 , $ O O O O O O .                                 O O O O O O O $ > 1 & O O O O O O O O O O O O = ",
"+ O O O O O O O O O O O - 2 > + O O O O O O                                         O O O O O O + > 2 - O O O O O O O O O O O + ",
"O O O O O O O O O O O - 2 > + O O O O O                                                 O O O O O + > 2 - O O O O O O O O O O O ",
"O O O O O O O O O O & 2 > + O O O O .                                                       O O O O + > 2 & O O O O O O O O O O ",
"O O O O O O O O O $ 2 > + O O O O                                                             O O O O + > 2 $ O O O O O O O O O ",
"O O O O O O O O + , 1 @ O O O O                                                                 O O O O @ 1 , + O O O O O O O O ",
"O O O O O O O O - 2 $ O O O O                 O & ; ; ; ; & O             O & ; ; ; ; & .         O O O O $ 2 - O O O O O O O O ",
"O + + + O O O $ 2 - + O O O                   0 <.r.r.r.r.;.6             , -.6.6.6.6.-.2         o O + O O - 2 $ O O + + O O O ",
"O O + + + O + , 1 @ O + O O                   z V.V.V.V.V.m.j             f x.v.v.v.c.z.l           O O O O @ 1 , + + + + + O O ",
"O O O + + O & 2 & O O + O                   . ^ V.M.M.m.m.B.U             K v.x.z.z.z.c./             O + O O & 2 & O + + + O O ",
"O + + + O + , , @ O + O .                   & <.V.M.m.m.m.B.+.O         O o.v.z.z.z.z.z.-.$           O O + O + , , + + O O O O ",
"+ + + + + $ 2 - + + + O                     e l.N.m.m.m.m.m.6.;         ; 6.c.z.z.j.j.j.d.e             O + + + - 2 & + + + + + ",
"+ + + + + > 1 @ + + +                       A V.m.m.m.m.b.b.l.y         y k.z.z.j.j.j.j.j.Z               O + + @ 1 > + + + + + ",
"+ + + + @ 1 > + + + O                     O ` V.m.m.b.b.b.b.b.V         B z.z.j.j.j.j.g.j.) O             O + + + > 1 @ + + + + ",
"+ + + + & 3 & + + + O                     ; r.m.m.b.b.b.b.x.b./ .       / c.j.j.j.j.g.g.g.>.-             O + + + & 3 $ + + + + ",
"+ + + + - 2 @ + + +                       p l.m.b.b.b.b.x.x.v.-.$     @ =.z.j.j.g.g.g.g.g.s.i               + + + @ 2 - + + + + ",
"+ + + + , 1 @ + + O                       I B.b.b.b.b.x.x.x.v.0.2     2 0.j.j.j.g.g.g.g.g.h.G               O + + @ 1 , + + + + ",
"+ + + @ 1 > + + + O                     + +.m.b.b.b.x.x.x.x.z.z.f     f j.j.g.g.g.g.g.g.g.h.X.+             O + + + > 2 @ + + + ",
"+ + + $ 3 - + + + O                     , r.b.b.b.x.-.z.x.z.z.c.K     K j.g.g.g.%.s.g.g.g.g.3.>             O + + + - 3 @ + + + ",
"+ + + $ 3 ; + + + O     o o o           k b.b.b.v.0.V y.z.z.z.c.X.O O X.j.g.g.9.C 8.g.g.f.f.f.d             O + + + ; 3 $ + + + ",
"@ @ + & 3 & + @ + O     o o             ^ b.b.x.v.-.0 ,.c.z.z.z.5.; ; 5.g.g.g.*.2 %.h.f.f.f.h.P o o         O + @ + & 3 & + @ @ ",
"@ @ @ & 3 & @ @ + O   O O O           $ #.b.x.x.v./ + _ c.z.j.j.d.e e s.g.g.g.) + E h.f.f.f.f.@.@           O + @ @ & 3 & + @ @ ",
"@ @ + & 3 & @ @ + O             o     q k.v.x.x.x.B   K c.j.j.j.j.B m g.g.g.h.H   m f.f.f.p.p.4.2     .     O + @ @ & 3 & @ @ @ ",
"@ @ @ & 3 ; @ @ + O             o     l x.x.x.z.d.e   f j.j.j.g.j.( Q g.g.g.g.f   w w.f.p.p.p.p.h     .     O @ @ @ ; 3 & @ @ @ ",
"@ @ @ $ 3 ; @ @ @ O   o O O         O ( v.x.z.c.:.&   2 0.j.g.g.g.3.3.h.g.g.4.2   & *.p.p.p.p.a.T O         O @ @ @ ; 3 & @ @ @ ",
"@ @ @ $ 3 : @ @ @ O   o O O .       & :.v.z.z.c.) O   $ &.j.g.g.g.g.g.g.g.h.$.$   . ! a.p.p.p.p.[ &         O @ @ @ : 3 $ @ @ @ ",
"@ @ @ # 2 , @ @ @ O . . O . .       e k.z.z.z.c.Z     O ( g.g.g.g.g.g.f.f.h.Q O     N p.p.p.p.p.q.w     o o O @ @ @ , 2 # @ @ @ ",
"@ @ @ @ , 2 @ @ @ + O . . .         Z c.z.z.z.d.u       D g.g.g.g.g.f.f.f.f.S       u w.p.p.p.i.i.M     O O + @ @ @ 2 , @ @ @ @ ",
"@ @ @ @ : 3 $ @ @ @ O             O _ c.z.j.j.5.-       a s.g.g.g.f.f.f.f.u.i       - 1.p.p.i.i.i.! O o o O @ @ @ $ 3 > @ @ @ @ ",
"@ @ @ @ ; w ; @ @ @ O             ; ,.c.j.j.j.X.+   o   , 8.g.g.f.f.f.f.p.3.,       + ' p.i.i.i.i.[ -   o O @ @ @ ; 3 & @ @ @ @ ",
"@ @ @ @ $ 3 , @ @ @ + O O o o o   p d.j.j.j.j.J         @ @.h.f.f.f.f.p.a.@.@         G p.i.i.i.i.q.t     + @ @ @ , 3 $ @ @ @ @ ",
"@ @ @ @ @ , 3 $ @ @ @ O o o o o   J c.j.j.j.g.s         . E h.f.f.f.p.p.a.T .         a q.i.i.i.i.i.F   O @ @ @ $ 3 , # @ @ @ @ ",
"# @ @ @ @ ; w : @ @ # +         + o.j.j.g.g.5.,           m f.f.f.p.p.p.p.M           , | i.i.i.i.i.' + O @ @ @ : w ; @ # # @ @ ",
"# # @ @ @ $ 2 2 $ @ # @ O       , 7.j.g.g.g.O.@           u u.f.p.p.p.p.w.u           @ ' i.i.i...t.} , @ @ @ $ 2 2 $ # # # @ @ ",
"# # # # @ @ ; e : # # # + O .   f g.g.g.g.g.P   O O O O   : 2.p.p.p.p.p.1.-             L i.i....... .g @ # @ : e ; @ # # # # # ",
"# # # # # # $ 2 3 & # # # O O O R j.g.g.g.g.g   O O O O o @ ] a.p.p.p.p.] @   O O O O   d i.t.t.t...t.L # # $ q 0 $ # # # # # # ",
"# # # # # # # ; e , # # # @ O @ ) 5.5.5.3.&.2   O O O O o O G 2.1.1.1.2.G O O O O O .   , [ } { { } } W ; # , e ; # # # # # # # ",
"# # # # # # # $ , e ; # # # @ O & ; ; ; ; & O o O O O O o o @ - - - - - @ O O O O O . . O & - - - , , , $ ; e , $ # # # # # # # ",
"# # # # # # # # * q q * # # # @ O X X X X X O O o o O o O O     X   X   o O O O O O O O o   X O @ # # # & 3 3 & # # # # # # # # ",
"# # # # % % % % % ; e 0 % % # # @ O O O O O O O O O o o O O O O O O O O O o O O O O O O o o O @ # # # * 2 e ; # % % % % # # # # ",
"% % $ $ # # % % % % : e 2 % # # % # O O O O O O O O O O O O O O O O O O O O O O O O O O O O @ # # % * 2 e : # % % % # # # # # % ",
"% % $ $ $ $ % % % $ $ : e 2 * # $ % $ @ O O O O O O O O O O O O O O O O O O O O O O O O @ # # # % * 2 e , % % % % % % $ $ $ $ % ",
"= $ $ $ $ % $ % $ $ $ $ , e 0 * # $ $ $ # + O O O O O O O O O O O O O O O o     O O @ # $ $ $ # * 2 e , % % % % % $ $ $ $ $ $ = ",
"7 # % % % % % % % % % % % : e q ; % % % % % # @ O O O O O O O O O O O O   O O O @ # % % % % % ; q e : % % % % % % % % % % % # 8 ",
"v # % % % % % % % % % % % % ; q e , * % % % % % % # @ + O O O O O O O O + @ @ # % % % % % * , e q ; % % % % % % % % % % % % # v ",
"Z.% % % % % % % % % % % % % % * 2 e q : * % % % % % % % % % $ $ # # % % % % % % % % % * : q e 2 * % % % % % % % % % % % % % % Z.",
"K.9 % % % % % % % % % % % % % % * : q e q : * % % % % % % % % % % % % % % % % % % * : q e q : * % % % % % % % % % % % % % $ 9 K.",
"I.Y # % % % % % % % % % % % % % % % * : q e e 0 : * * % % % % % % % % % % * * : 0 e e q : * % % % % % % % % % % % % % % % # Y I.",
"U.P.r $ % % % % % % * * % % % % % % % % * : 0 e e e q 0 6 : : : : : : 6 0 q e e e 0 : * % % % % % * % * % % % % % % % * $ r P.U.",
"U.U.G.4 % * * * * * * * * * * * * * * * * * * * : 6 q e e e e e e e e e e q 6 : * * * * * * * * * * * * * * * * * * * % 4 G.U.U.",
"U.U.I.S.4 $ * * * * * * * * * * * * * * * * * * * * * * * ; : : : : ; * * * * * * * * * * * * * * * * * * * * * * * $ 4 S.I.U.U.",
"U.U.U.I.G.r # % * * * * * * * * * * * * * * * * * * * * * * * * * * * * * * * * * * * * * * * * * * * * * * * * % # r G.I.U.U.U.",
"U.U.U.U.U.P.Y 9 * % * * * * * * * * * * * * * * * * * * * * * * * * * * * * * * * * * * * * * * * * * * * * % * 9 Y P.U.U.U.U.U.",
"U.U.U.U.U.U.I.K.Z.b 9 = * * * * * * * * * * * * * * * * * * * * * * * * * * * * * * * * * * * * * * * * = 9 v Z.K.I.U.U.U.U.U.U."
};
