/* XPM */
static char *whippet32[] = {
/* columns rows colors chars-per-pixel */
"32 32 128 2 ",
"   c #0E1526",
".  c #0F182B",
"X  c #101727",
"o  c #101729",
"O  c #111A2C",
"+  c #141E31",
"@  c #162134",
"#  c #192436",
"$  c #15253A",
"%  c #1B2639",
"&  c #16283E",
"*  c #1D283B",
"=  c #222C3E",
"-  c #162C43",
";  c #1D2E42",
":  c #1D3146",
">  c #173049",
",  c #1C344B",
"<  c #1E384F",
"1  c #1F3A52",
"2  c #1E3F59",
"3  c #232E40",
"4  c #20384F",
"5  c #353C4C",
"6  c #203A51",
"7  c #1D425D",
"8  c #23435C",
"9  c #3F4857",
"0  c #1D4763",
"q  c #264660",
"w  c #284760",
"e  c #254A64",
"r  c #2D4E68",
"t  c #25506D",
"y  c #2A536F",
"u  c #275573",
"i  c #275C7B",
"p  c #2B5C7C",
"a  c #305873",
"s  c #32627F",
"d  c #414A59",
"f  c #4C5260",
"g  c #565E6C",
"h  c #276487",
"j  c #2C6383",
"k  c #26678C",
"l  c #2B688A",
"z  c #316381",
"x  c #356887",
"c  c #386987",
"v  c #34698A",
"b  c #3C6A88",
"n  c #276D92",
"m  c #2C6E93",
"M  c #326F92",
"N  c #357193",
"B  c #397395",
"V  c #38779A",
"C  c #367DA3",
"Z  c #397DA2",
"A  c #407392",
"S  c #427897",
"D  c #3385AE",
"F  c #3686B0",
"G  c #3788B1",
"H  c #3E8EB6",
"J  c #328EBB",
"K  c #3191BF",
"L  c #4481A4",
"P  c #4386AA",
"I  c #448AAF",
"U  c #488BAF",
"Y  c #438FB7",
"T  c #4595BD",
"R  c #3BA5D7",
"E  c #3CA9DC",
"W  c #479BC5",
"Q  c #479EC9",
"!  c #499FC9",
"~  c #42A1CE",
"^  c #56A0C5",
"/  c #55A7CF",
"(  c #42A4D3",
")  c #4AA8D5",
"_  c #46ACDC",
"`  c #52A7D1",
"'  c #55AAD4",
"]  c #52ADD9",
"[  c #4BB7E8",
"{  c #4CBBED",
"}  c #52B5E4",
"|  c #55BEEE",
" . c #5ABDEB",
".. c #42BAF1",
"X. c #64BDE7",
"o. c #3EC3FE",
"O. c #43C2FB",
"+. c #4CC5FB",
"@. c #4EC8FE",
"#. c #54C2F4",
"$. c #5BC2F2",
"%. c #53C6FA",
"&. c #59C7FA",
"*. c #55C9FD",
"=. c #5CCAFD",
"-. c #61C1EE",
";. c #63C7F6",
":. c #6CCAF6",
">. c #60C8F8",
",. c #67CBFA",
"<. c #63CCFB",
"1. c #60CCFD",
"2. c #65CCFC",
"3. c #69CDFB",
"4. c #6CCDFB",
"5. c #68CEFD",
"6. c #6CCFFC",
"7. c #71CDF9",
"8. c #6BD0FF",
"9. c #6FD1FE",
"0. c #72D2FF",
"q. c #858993",
"w. c #8C919A",
"e. c #D5D6DA",
"r. c #D7D9DC",
"t. c #E5E6E8",
"y. c #E7E8EA",
"u. c white",
/* pixels */
"u.u.t.q.5 O         . . .                   . . .   + 5 q.t.u.u.",
"u.e.f O   . o o o o o o O O + + + + O O . . O O o .     O f e.u.",
"t.f   o o o O O o O + $ - - - - - - - - $ + O O O o o o o   f t.",
"q.O O O O O O O + - - $ @ + O O O O O @ $ - - + O O O O O O O q.",
"5 . O O O O O $ - $ O O O o .       o o O O $ - $ O O O O O . 5 ",
"+ O O O O O - - + O O                     O O + - - O O O O O + ",
"O O O O O - - + O .                         o O + - - O O O O O ",
"O O O O $ - + O                                 O + - $ O O O O ",
"O O O @ > @ O o       $ b A b $     $ v B v $   o O @ > @ O O O ",
"O O O - & O O         r 7.0.:.w     q ;.2.>.e     O O & - O O O ",
"+ O @ > @ O           S 0.4.6.c     x 1.>.1.B       O @ > @ O + ",
"+ O - - + O         + ^ 9.4.8.U     I 1.=.=.W +     O + - - O + ",
"+ + > $ + .         , X.6.3.5.' @ @ ` =.=.=.} >       + $ : + + ",
"+ @ > @ O           a 3.3.,.2. ., ,  .=.&.&.%.u       O @ > @ + ",
"+ $ > @ O           L 8.-.' <.>.y y &.| ) %.*.C       O @ > $ + ",
"@ $ > @ O         @ / 8.` B >.1.V V =.) M %.%.~ @     O @ > $ @ ",
"@ $ > @ O o o     6 -.2.P q $.=.! Q =.H 7 { +.{ 1   o O @ > $ @ ",
"@ $ > @ O o       s ,.>.z - } =.#.#.*.M $ ( +.+.i   o O @ > $ @ ",
"@ # , # + o     o I 1.$.8 O W =.%.%.#.t   G +.+.D .   + # , $ @ ",
"@ @ , * @ o o   & ] 1.] &   Z *.%.%.[ ,   h +.O.R $ o @ * , @ @ ",
"@ @ ; : @ O     8 $.=.Y O   p %.%.%.( @   7 ..O...7 o @ : ; @ @ ",
"@ @ * , $ @ o   v =.=.v     2 { +.+.F o   - E O.O.k + $ , * @ @ ",
"# # # , ; # + O T =.#.e     & _ @.+.l   o O J O.o.K * ; , # # # ",
"# # # * 1 * @ # j N v $ o o O i m m , X o o 0 n m h ; < * # # # ",
"# # # # ; , $ # O X X o o o o X     o o o o o o @ # , : # # # # ",
"$ $ % $ $ , , % # + o o o o o o o o o o o o + # % , , % # $ # # ",
"= % % % % % , , * % @ + O o o o o o o O + @ % * < , % % $ % $ = ",
"d # % % % % % : 6 : * % # @ @ @ @ @ @ # % * : 6 : % % % % % # 9 ",
"w.* % % % % % % * , 6 , ; * * % * * * ; , 6 , * % % % % % % * w.",
"y.g # % * * * * % * ; , 6 6 6 4 4 6 6 6 , * * % * * * * % # g y.",
"u.r.g * % * * * * * * * * * ; ; ; ; * * * * * * * * * % * g r.u.",
"u.u.y.w.d 3 * * * * * * * * * * * * * * * * * * * * = d w.y.u.u."
};
