/* XPM */
static char *whippet16[] = {
/* columns rows colors chars-per-pixel */
"16 16 97 2 ",
"   c #0C1324",
".  c #0E1627",
"X  c #0F172A",
"o  c #0F182B",
"O  c #101728",
"+  c #10182B",
"@  c #111A2C",
"#  c #131C2E",
"$  c #141C2E",
"%  c #121F33",
"&  c #141E30",
"*  c #162033",
"=  c #132136",
"-  c #152236",
";  c #1A2234",
":  c #1A2436",
">  c #1C2436",
",  c #132338",
"<  c #132439",
"1  c #14253A",
"2  c #182539",
"3  c #1C2639",
"4  c #18273C",
"5  c #17283D",
"6  c #1E283A",
"7  c #18283D",
"8  c #1C2B3F",
"9  c #162E45",
"0  c #1A2B40",
"q  c #1B2D42",
"w  c #1D2E43",
"e  c #192E44",
"r  c #1C2F44",
"t  c #1E3145",
"y  c #1D344A",
"u  c #1A374F",
"i  c #1B3A53",
"p  c #1E3A52",
"a  c #253041",
"s  c #273243",
"d  c #213C54",
"f  c #23435C",
"g  c #224D69",
"h  c #25526F",
"j  c #2A5673",
"k  c #255D7F",
"l  c #285B7B",
"z  c #315873",
"x  c #6B707B",
"c  c #6B707C",
"v  c #2F6383",
"b  c #326280",
"n  c #366380",
"m  c #356B8A",
"M  c #2B779F",
"N  c #39779A",
"B  c #357A9F",
"V  c #2D7DA7",
"C  c #397EA3",
"Z  c #3B7FA4",
"A  c #737984",
"S  c #737A85",
"D  c #3984AB",
"F  c #3088B3",
"G  c #398FBA",
"H  c #4582A4",
"J  c #438EB5",
"K  c #4790B6",
"L  c #5193B6",
"P  c #3FB4E9",
"I  c #4398C3",
"U  c #4C9BC3",
"Y  c #479FCB",
"T  c #4A9FCA",
"R  c #529DC3",
"E  c #55A6CF",
"W  c #44A2D0",
"Q  c #4BAEDD",
"!  c #56ABD5",
"~  c #4FB0DE",
"^  c #53B1DE",
"/  c #5AB3DF",
"(  c #4ABAEE",
")  c #53B3E1",
"_  c #57B6E3",
"`  c #51B6E5",
"'  c #5CBAE7",
"]  c #5ABCE9",
"[  c #47BFF6",
"{  c #51CAFF",
"}  c #56CBFF",
"|  c #5BCCFE",
" . c #60CDFE",
".. c #6BD0FF",
"X. c #70D2FF",
"o. c #E5E6E8",
"O. c #E7E8EA",
/* pixels */
"o.c ; X X + @ % % @ + X X ; x o.",
"c @ + @ % < , = = , < % @ o @ c ",
"> @ @ 1 , @ X . . X @ = < @ @ > ",
"@ @ 1 = X . o X . X o + = 1 @ @ ",
"# - 1 + . r L n . b K e O 1 - # ",
"& 5 % .   z X.R - U  .j   % 5 & ",
"- 5 @ X . H ../ f ^ | C . @ 5 - ",
"1 4 + . - E ! ] N ~ Q W = + 7 1 ",
"2 7 + . d ' m ) ` I B ( i + 7 2 ",
"2 0 # . b _ p Y } B g [ k + 0 2 ",
"; q - @ J T % D { l 9 P F : q ; ",
": 7 0 2 Z v . h G u # M V y 7 : ",
": : w 8 - @ + + @ + + * w r 2 : ",
"a : 3 t w : & $ $ & 2 w r 3 : a ",
"A 6 3 6 w t t w w t t w 6 3 6 A ",
"O.A a 6 6 6 8 w w 8 6 6 6 a A O."
};
